<svg xmlns="http://www.w3.org/2000/svg" xmlns:xlink="http://www.w3.org/1999/xlink" width="176.6" height="112.219" viewBox="0 0 176.6 112.219">
  <defs>
    <style>
      .cls-1 {
        fill: #fff;
        fill-rule: evenodd;
        filter: url(#filter);
      }
    </style>
    <filter id="filter" x="1530.03" y="136.594" width="176.6" height="112.219" filterUnits="userSpaceOnUse">
      <feFlood result="flood" flood-color="#c5af91"/>
      <feComposite result="composite" operator="in" in2="SourceGraphic"/>
      <feBlend result="blend" in2="SourceGraphic"/>
    </filter>
  </defs>
  <path id="g_" data-name="g+" class="cls-1" d="M1687.04,182.935V163.346h-13.96v19.589h-19.6V196.9h19.6V216.49h13.96V196.9h19.59V182.935h-19.59Zm-100.85-1.484v22.4h30.01a25.53,25.53,0,0,1-6.15,12.671c-12.03,13.129-34.46,13-47.3-.218a34.007,34.007,0,0,1,.32-47.561c12.37-12.4,32.31-12.934,44.37-1.143l-0.03.025,16.36-16.358a56.044,56.044,0,0,0-77.58,80.851c21.78,22.07,59.53,22.289,79.94.365,12.32-13.234,15.86-32.214,12.92-51.031h-52.86Z" transform="translate(-1530.03 -136.594)"/>
</svg>
