<svg xmlns="http://www.w3.org/2000/svg" xmlns:xlink="http://www.w3.org/1999/xlink" width="148.96" height="148.969" viewBox="0 0 148.96 148.969">
  <defs>
    <style>
      .cls-1 {
        fill: #fff;
        fill-rule: evenodd;
        filter: url(#filter);
      }
    </style>
    <filter id="filter" x="1896.63" y="117.844" width="148.96" height="148.969" filterUnits="userSpaceOnUse">
      <feFlood result="flood" flood-color="#c5af91"/>
      <feComposite result="composite" operator="in" in2="SourceGraphic"/>
      <feBlend result="blend" in2="SourceGraphic"/>
    </filter>
  </defs>
  <path id="instagram" class="cls-1" d="M1971.11,131.271c19.89,0,22.24.076,30.1,0.434,7.26,0.332,11.2,1.545,13.83,2.565a24.665,24.665,0,0,1,14.13,14.134c1.02,2.624,2.24,6.567,2.57,13.828,0.36,7.853.43,10.209,0.43,30.094s-0.07,22.24-.43,30.093c-0.33,7.261-1.55,11.2-2.57,13.829a24.665,24.665,0,0,1-14.13,14.134c-2.63,1.02-6.57,2.233-13.83,2.564-7.86.358-10.21,0.434-30.1,0.434s-22.24-.076-30.1-0.434c-7.26-.331-11.2-1.544-13.83-2.564a24.665,24.665,0,0,1-14.13-14.134c-1.02-2.624-2.24-6.568-2.57-13.829-0.36-7.853-.43-10.208-0.43-30.093s0.07-22.241.43-30.094c0.33-7.261,1.55-11.2,2.57-13.828a24.665,24.665,0,0,1,14.13-14.134c2.63-1.02,6.57-2.233,13.83-2.565,7.86-.358,10.21-0.434,30.1-0.434m0-13.418c-20.23,0-22.76.085-30.71,0.448a54.684,54.684,0,0,0-18.08,3.462,38.078,38.078,0,0,0-21.78,21.78,54.65,54.65,0,0,0-3.46,18.078c-0.37,7.943-.45,10.479-0.45,30.7s0.08,22.762.45,30.705a54.644,54.644,0,0,0,3.46,18.077,38.084,38.084,0,0,0,21.78,21.781,54.684,54.684,0,0,0,18.08,3.462c7.95,0.362,10.48.448,30.71,0.448s22.76-.086,30.71-0.448a54.684,54.684,0,0,0,18.08-3.462,38.084,38.084,0,0,0,21.78-21.781,54.644,54.644,0,0,0,3.46-18.077c0.37-7.943.45-10.48,0.45-30.705s-0.08-22.762-.45-30.7a54.65,54.65,0,0,0-3.46-18.078,38.078,38.078,0,0,0-21.78-21.78,54.684,54.684,0,0,0-18.08-3.462c-7.95-.363-10.48-0.448-30.71-0.448h0Zm0,36.23a38.243,38.243,0,1,0,38.25,38.243A38.25,38.25,0,0,0,1971.11,154.083Zm0,63.067a24.825,24.825,0,1,1,24.83-24.824A24.829,24.829,0,0,1,1971.11,217.15Zm48.7-64.578a8.94,8.94,0,1,1-8.94-8.937A8.944,8.944,0,0,1,2019.81,152.572Z" transform="translate(-1896.63 -117.844)"/>
</svg>
