<svg xmlns="http://www.w3.org/2000/svg" xmlns:xlink="http://www.w3.org/1999/xlink" width="159.563" height="153.031" viewBox="0 0 159.563 153.031">
  <defs>
    <style>
      .cls-1 {
        fill: #fff;
        fill-rule: evenodd;
        filter: url(#filter);
      }
    </style>
    <filter id="filter" x="471.031" y="826.094" width="159.563" height="153.031" filterUnits="userSpaceOnUse">
      <feFlood result="flood" flood-color="#c5af91"/>
      <feComposite result="composite" operator="in" in2="SourceGraphic"/>
      <feBlend result="blend" in2="SourceGraphic"/>
    </filter>
  </defs>
  <path id="mail" class="cls-1" d="M578.37,901.888c-0.909-17.635-14-28.241-29.809-28.241h-0.6c-18.244,0-28.365,14.347-28.365,30.646,0,18.244,12.243,29.772,28.3,29.772,17.895,0,29.664-13.107,30.516-28.614Zm-30.319-44.021c12.193,0,23.658,5.388,32.072,13.825v0.031c0-4.049,2.727-7.1,6.512-7.1l0.957-.006c5.92,0,7.134,5.6,7.134,7.372l0.031,62.976c-0.419,4.124,4.255,6.253,6.845,3.608,10.115-10.393,22.21-53.423-6.287-78.354-26.561-23.245-62.2-19.415-81.154-6.352-20.148,13.894-33.041,44.649-20.516,73.534,13.653,31.506,52.718,40.9,75.936,31.525,11.758-4.741,17.188,11.15,4.977,16.34-18.45,7.856-69.8,7.065-93.791-34.482-16.209-28.058-15.349-77.419,27.639-102.995,32.885-19.568,76.241-14.154,102.384,13.147,27.327,28.542,25.734,81.987-.922,102.76-12.076,9.44-30.014.255-29.9-13.5l-0.124-4.5a44.876,44.876,0,0,1-31.794,13.21c-24.089,0-45.284-21.187-45.284-45.274,0-24.324,21.195-45.764,45.284-45.764h0" transform="translate(-471.031 -826.094)"/>
</svg>
