<svg xmlns="http://www.w3.org/2000/svg" xmlns:xlink="http://www.w3.org/1999/xlink" width="136.31" height="164.844" viewBox="0 0 136.31 164.844">
  <defs>
    <style>
      .cls-1 {
        fill: #fff;
        fill-rule: evenodd;
        filter: url(#filter);
      }
    </style>
    <filter id="filter" x="1197.13" y="465" width="136.31" height="164.844" filterUnits="userSpaceOnUse">
      <feFlood result="flood" flood-color="#c5af91"/>
      <feComposite result="composite" operator="in" in2="SourceGraphic"/>
      <feBlend result="blend" in2="SourceGraphic"/>
    </filter>
  </defs>
  <path id="youtube" class="cls-1" d="M1310.93,573.242q-4.125,0-4.12,6.3v4.207h8.23v-4.207C1315.04,575.343,1313.66,573.242,1310.93,573.242Zm20.15-23.106a17.223,17.223,0,0,0-14.74-13.39c-16.9-1.887-34-1.9-51.03-1.887-17.04-.009-34.14,0-51.04,1.887a17.2,17.2,0,0,0-14.73,13.39c-2.38,10.323-2.4,21.587-2.4,32.217s0,21.893,2.37,32.215a17.2,17.2,0,0,0,14.73,13.389c16.9,1.888,34.01,1.9,51.04,1.888,17.03,0.008,34.14,0,51.03-1.888a17.22,17.22,0,0,0,14.74-13.389c2.37-10.322,2.39-21.588,2.39-32.215S1333.45,560.459,1331.08,550.136Zm-95.07,9.285h-9.86v52.414h-9.17V559.421h-9.68v-8.586h28.71v8.586Zm24.89,52.414h-8.24v-4.959c-3.28,3.757-6.39,5.585-9.41,5.585-2.66,0-4.49-1.078-5.31-3.38a23.133,23.133,0,0,1-.73-6.759v-35.94h8.24v33.463a27.353,27.353,0,0,0,.07,3.2c0.2,1.277.83,1.928,1.93,1.928,1.65,0,3.38-1.274,5.21-3.854v-34.74h8.24v45.453Zm31.29-13.641a36.362,36.362,0,0,1-.83,9.16c-1.1,3.379-3.3,5.107-6.58,5.107-2.93,0-5.77-1.628-8.52-5.032v4.406h-8.23v-61h8.23v19.922c2.66-3.273,5.49-4.928,8.52-4.928,3.28,0,5.48,1.726,6.58,5.129a35.1,35.1,0,0,1,.83,9.138v18.1Zm31.09-7.583h-16.47v8.056c0,4.207,1.37,6.309,4.2,6.309,2.03,0,3.21-1.1,3.68-3.3a51.6,51.6,0,0,0,.18-5.58h8.41v1.2c0,2.653-.1,4.481-0.18,5.305a11.623,11.623,0,0,1-1.92,4.934,11.4,11.4,0,0,1-9.96,4.928,11.788,11.788,0,0,1-9.97-4.656c-1.75-2.275-2.65-5.859-2.65-10.689V581.2c0-4.858.8-8.411,2.55-10.71a11.71,11.71,0,0,1,9.86-4.659,11.451,11.451,0,0,1,9.72,4.659c1.72,2.3,2.55,5.852,2.55,10.71v9.413Zm-42.91-17.369a5.925,5.925,0,0,0-4.11,2v27.7a5.883,5.883,0,0,0,4.11,2.029c2.38,0,3.58-2.029,3.58-6.134v-19.4C1283.95,575.343,1282.75,573.242,1280.37,573.242Zm-29.35-108.237h-9.33L1235.4,489.2l-6.55-24.192h-9.71c1.94,5.709,3.97,11.451,5.92,17.166a149.849,149.849,0,0,1,5.63,19.492V526.61h9.23V501.663Zm24.66,46.745V495.668c0-4.906-.84-8.494-2.58-10.817a12.353,12.353,0,0,0-19.4,0c-1.77,2.323-2.6,5.911-2.6,10.817V511.75c0,4.876.83,8.5,2.6,10.8a12.358,12.358,0,0,0,19.4,0C1274.84,520.245,1275.68,516.626,1275.68,511.75Zm-8.32,1.564c0,4.247-1.29,6.373-3.97,6.373s-3.97-2.126-3.97-6.373V494c0-4.247,1.29-6.36,3.97-6.36s3.97,2.113,3.97,6.36v19.316Zm39.09,13.3V480.7h-8.32v35.089c-1.85,2.606-3.59,3.9-5.26,3.9a1.908,1.908,0,0,1-1.95-1.948,19.555,19.555,0,0,1-.1-3.237V480.7h-8.29v36.3a23.573,23.573,0,0,0,.73,6.826c0.83,2.328,2.68,3.416,5.36,3.416,3.04,0,6.2-1.846,9.51-5.646v5.009h8.32Z" transform="translate(-1197.13 -465)"/>
</svg>
